PathFileType	4	(X/Y/Z)	C:\Users\Admin\Desktop\Capture Files\05302019 Reflex Trials\AcheillesTrialStatic_1-Unnamed.trc
DataRate	CameraRate	NumFrames	NumMarkers	Units	OrigDataRate	OrigDataStartFrame	OrigNumFrames
300.00	300.00	      26	0	mm	300.00	989	      1130
Frame#	Time	
		

989	3.293	111.87919	242.79572	382.30319	149.60426	203.38657	235.32771	89.83685	132.95700	367.31564	99.68908	155.80949	303.43454	200.32002	-308.89700	928.32355	145.71996	354.95279	153.96278	-231.79230	209.46130	317.99158	-214.19202	-217.15393	665.97192	289.12680	-317.80527	1019.54791	73.11311	244.94945	245.35756				281.24829	-141.27522	964.20337	124.99262	309.20059	206.54457							91.30927	245.89532	564.47290	113.62689	254.20020	319.59183	
990	3.297	111.88953	242.79562	382.30664	149.59288	203.38628	235.33505	89.80869	132.95796	367.31873	99.69371	155.80420	303.42514	200.29614	-308.90356	928.31598	145.70837	354.95618	153.96294	-231.80481	209.46602	317.98996	-214.21442	-217.12762	665.95813	289.03046	-317.67584	1019.58575	73.11549	244.95444	245.36578				281.17245	-141.27220	964.24768	124.96937	309.20563	206.54990							91.28758	245.88805	564.47589	113.61769	254.19704	319.59509	
991	3.300	111.87051	242.78947	382.31302	149.58705	203.37718	235.31241	89.79875	132.95811	367.29559	99.66955	155.79659	303.42255	200.29836	-308.95267	928.30939	145.70090	354.97290	153.98251	-231.82118	209.46748	317.98370	-214.22292	-217.17291	665.99115	288.99454	-317.74789	1019.57971	73.11069	244.95946	245.36702				281.10184	-141.27310	964.27643	124.96265	309.20090	206.55589							91.28353	245.87967	564.47266	113.62022	254.20168	319.57590	
992	3.303	111.86272	242.77443	382.30142	149.56467	203.38696	235.31789	89.77473	132.94711	367.31027	99.68803	155.81998	303.43213	200.25296	-308.90881	928.30811	145.70915	354.96252	153.96759	-231.85291	209.46204	317.98767	-214.24345	-217.19139	666.02576	288.96042	-317.75162	1019.60345	73.10086	244.96576	245.36389				280.99622	-141.30945	964.29272	124.95345	309.20108	206.55420							91.27480	245.88170	564.47449	113.60944	254.18842	319.59189	
993	3.307	111.85235	242.78311	382.30902	149.55554	203.40659	235.32587	89.80527	132.98386	367.31827	99.65126	155.79384	303.42197	200.25325	-308.92651	928.27557	145.70238	354.95981	153.97552	-231.86960	209.45198	317.99075	-214.26561	-217.19206	666.01038	288.91769	-317.71317	1019.58911	73.09898	244.95416	245.38658				280.95602	-141.29614	964.32843	124.95803	309.19998	206.56570							91.26647	245.86401	564.45825	113.58784	254.19472	319.58011	
994	3.310	111.84335	242.76817	382.30579	149.56090	203.39252	235.33812	89.79180	132.94617	367.30386	99.66746	155.79425	303.44424	200.22432	-308.94861	928.25281	145.69249	354.96844	153.99251	-231.87721	209.45747	318.00189	-214.26610	-217.17867	666.02563	288.90207	-317.73276	1019.59149	73.08849	244.95473	245.37761				280.86761	-141.30098	964.35382	124.93696	309.19293	206.56606							91.24559	245.86475	564.46735	113.58197	254.19322	319.58035	
995	3.313	111.84451	242.77956	382.32352	149.55174	203.38693	235.34116	89.82277	132.96162	367.32196	99.65322	155.80446	303.42413	200.20081	-308.89371	928.25610	145.68715	354.96652	153.98721	-231.90224	209.44298	318.00580	-214.32251	-217.21434	666.01007	288.81033	-317.61746	1019.66296	73.09216	244.95840	245.39156				280.76788	-141.30840	964.38733	124.93941	309.19955	206.57173							91.23966	245.85770	564.48407	113.58033	254.17413	319.58344	
996	3.317	111.83591	242.76619	382.32706	149.50531	203.37479	235.32167	89.75281	132.95747	367.30255	99.59843	155.77866	303.42758	200.21069	-308.96744	928.24713	145.68303	354.97470	153.99918	-231.90633	209.44887	318.01669	-214.32817	-217.24188	666.03638	288.77240	-317.63293	1019.65564	73.07775	244.95325	245.38309				280.69794	-141.30429	964.41296	124.92858	309.19681	206.59364							91.23438	245.84969	564.48602	113.56854	254.19318	319.59891	
997	3.320	111.81225	242.76898	382.32742	149.49791	203.38049	235.34837	89.76920	132.94800	367.33173	99.62462	155.78943	303.44147	200.15750	-308.88364	928.25250	145.67537	354.98163	154.02164	-231.92125	209.44684	318.03128	-214.34262	-217.22455	666.02197	288.70496	-317.60446	1019.65320	73.05195	244.96671	245.38828				280.63062	-141.31921	964.44189	124.91666	309.21741	206.60583							91.22073	245.83391	564.49078	113.56583	254.19310	319.59579	
998	3.323	111.80846	242.75792	382.33054	149.48149	203.39598	235.35294	89.69999	132.92203	367.30484	99.62925	155.80525	303.44742	200.16902	-308.97043	928.22253	145.66547	354.98727	154.03941	-231.93843	209.45264	318.03336	-214.39616	-217.28520	666.02094	288.64255	-317.49203	1019.72131	73.03124	244.96118	245.38785				280.55237	-141.31378	964.48779	124.89779	309.21030	206.61969							91.21412	245.81744	564.50812	113.54494	254.18898	319.61115	
999	3.327	111.78949	242.74567	382.34390	149.43723	203.38606	235.34966	89.70360	132.91014	367.32925	99.57383	155.78603	303.42395	200.16232	-308.95880	928.20563	145.66298	354.99338	154.05510	-231.95586	209.44987	318.03903	-214.45526	-217.29192	666.03333	288.65335	-317.58078	1019.71460	73.01498	244.99081	245.41476				280.44342	-141.33623	964.51898	124.87354	309.21738	206.64098							91.20275	245.80344	564.49567	113.54376	254.18637	319.61560	
1000	3.330	111.77943	242.73845	382.35550	149.43283	203.39337	235.36827	89.65627	132.88515	367.33820	99.58507	155.78146	303.45465	200.15063	-308.97369	928.20154	145.63152	355.00897	154.07724	-231.97855	209.45705	318.05466	-214.42555	-217.29001	666.08118	288.61880	-317.52631	1019.71027	73.00320	244.96727	245.40593				280.41617	-141.33563	964.54138	124.87854	309.22345	206.64909							91.18787	245.78938	564.51959	113.52082	254.18593	319.62625	
1001	3.333	111.76382	242.74129	382.36411	149.42670	203.39699	235.37430	89.64037	132.90703	367.32278	99.53477	155.78958	303.44791	200.14355	-308.99164	928.17755	145.62180	355.01218	154.10535	-232.00294	209.46439	318.07315	-214.45161	-217.33388	666.09930	288.57547	-317.57364	1019.76355	72.98482	244.97502	245.41936				280.32303	-141.37379	964.56598	124.85340	309.22781	206.66882							91.17779	245.77734	564.52338	113.51820	254.16965	319.65292	
1002	3.337	111.75054	242.73567	382.39215	149.40689	203.39265	235.40117				99.52274	155.79407	303.47147	200.16161	-309.05167	928.16907	145.59370	355.00900	154.12236	-232.00540	209.46255	318.07025	-214.49583	-217.35713	666.10962	288.52072	-317.52505	1019.74792	72.96618	244.99399	245.45976	89.87984	133.46602	367.66183	280.26666	-141.36699	964.58472	124.84759	309.22803	206.69000							91.17877	245.77078	564.53912	113.51086	254.18553	319.67273	
1003	3.340	111.72166	242.73978	382.40567	149.38319	203.40840	235.41371				99.50921	155.80025	303.48953	200.12503	-309.00409	928.15948	145.59322	355.01926	154.15401	-232.01738	209.46219	318.08142	-214.55502	-217.39775	666.08838	288.50632	-317.49948	1019.77472	72.93409	245.00574	245.46814	89.84803	133.46289	367.67300	280.21130	-141.39536	964.60925	124.82114	309.23431	206.71140							91.17915	245.76062	564.55792	113.48646	254.17674	319.67294	
1004	3.343	111.71617	242.72398	382.41815	149.33209	203.37892	235.40666				99.44601	155.78116	303.48611	200.12563	-309.05164	928.12646	145.57523	355.03973	154.17216	-232.04283	209.47066	318.10834	-214.57884	-217.39566	666.12653	288.43420	-317.44763	1019.82538	72.92677	245.00333	245.49599	89.54968	132.87384	367.35483	280.13611	-141.41180	964.64368	124.81219	309.23969	206.75101							91.15918	245.73076	564.58032	113.45257	254.17546	319.70047	
1005	3.347	111.71513	242.72348	382.43628	149.33000	203.38722	235.43456				99.45565	155.80051	303.50662	200.13744	-309.11523	928.11462	145.55846	355.04337	154.20010	-232.04201	209.47174	318.12622	-214.59401	-217.43109	666.15118	288.44901	-317.50027	1019.83588	72.90882	245.00655	245.50899	89.55051	132.87263	367.37994	280.06964	-141.43204	964.67242	124.79195	309.24472	206.76193							91.15197	245.71178	564.59656	113.45844	254.17390	319.72333	
1006	3.350	111.68681	242.71915	382.45941	149.29169	203.39549	235.43867	89.78700	133.45111	367.70209	99.41525	155.79678	303.51007	200.13771	-309.10440	928.11798	145.53723	355.05368	154.23468	-232.06441	209.46288	318.14044	-214.64594	-217.46999	666.15436	288.39807	-317.49606	1019.84552	72.87739	245.00861	245.53644				280.00116	-141.45335	964.67908	124.77950	309.24133	206.78712							91.12836	245.70970	564.61938	113.44662	254.16859	319.73395	
1007	3.353	111.66485	242.71735	382.48065	149.27878	203.39622	235.45007	89.75941	133.44635	367.70844	99.39296	155.78946	303.52396	200.14189	-309.16162	928.10199	145.51888	355.07388	154.27036	-232.83104	209.71848	318.30078	-214.67435	-217.47560	666.12952	288.38266	-317.45233	1019.82739	72.87376	245.01840	245.56679				279.96555	-141.47377	964.70386	124.74483	309.24603	206.82277							91.13988	245.68784	564.63721	113.42757	254.16267	319.75977	
1008	3.357	111.65390	242.71658	382.50058	149.28024	203.40472	235.48505	89.74889	133.43196	367.73007	99.37466	155.79605	303.53595	200.12831	-309.20468	928.07562	145.49438	355.06342	154.28935	-232.08183	209.47139	318.17941	-214.69980	-217.53830	666.17255	288.31839	-317.45221	1019.86444	72.84030	245.03908	245.59071				279.90271	-141.50429	964.72992	124.73424	309.24686	206.85190							91.12824	245.66982	564.66571	113.40434	254.16916	319.77573	
1009	3.360	111.63708	242.69868	382.53754	149.23904	203.41161	235.49136	89.69513	133.43111	367.74005	99.36762	155.77946	303.56021	200.11693	-309.18823	928.08551	145.46764	355.07666	154.32295	-232.09702	209.47704	318.20877	-214.72771	-217.54445	666.18713	288.35068	-317.51660	1019.82928	72.83106	245.03970	245.61731				279.87140	-141.52399	964.74268	124.69501	309.26648	206.88757							91.13213	245.65004	564.69006	113.40309	254.15353	319.80460	
1010	3.363	111.61041	242.68790	382.53967	149.20444	203.39352	235.50798	89.69724	133.43585	367.75223	99.29900	155.78098	303.56476	200.12381	-309.23044	928.05707	145.45041	355.08511	154.34679	-232.10754	209.47821	318.22812	-214.75737	-217.58189	666.18616	288.29233	-317.50360	1019.88208	72.80889	245.04704	245.64835				279.80344	-141.55383	964.76593	124.68835	309.26828	206.91658							91.13215	245.63896	564.71167	113.36832	254.15591	319.82144	
1011	3.367	111.61225	242.69102	382.56915	149.17751	203.40562	235.52904	89.70423	133.42741	367.78235	99.34261	155.78143	303.60571	200.13640	-309.27078	928.04669	145.43690	355.10361	154.38173	-232.88455	209.74159	318.40060	-214.80589	-217.62096	666.20245	288.25635	-317.48477	1019.89569	72.78284	245.05377	245.66777				279.77765	-141.57332	964.78912	124.64778	309.28497	206.95099							91.12709	245.60768	564.74146	113.35365	254.16782	319.85889	
1012	3.370	111.60891	242.67712	382.61166	149.15050	203.40219	235.53331	89.68349	133.42561	367.80627	99.31337	155.78754	303.62607	200.13414	-309.27838	928.04059	145.39197	355.10175	154.40955	-232.91370	209.73355	318.43112	-214.83340	-217.63515	666.22662	288.20917	-317.47241	1019.93774	72.74924	245.07362	245.71526				279.75085	-141.59660	964.78815	124.63872	309.27731	206.97987							91.12197	245.59904	564.75024	113.33935	254.17500	319.88449	
1013	3.373	111.58431	242.67635	382.62320	149.14447	203.41273	235.56976	89.65984	133.41489	367.83963	99.32342	155.79132	303.65427	200.14503	-309.34912	928.02698	145.37291	355.11533	154.44344	-232.91296	209.73273	318.43954	-214.86214	-217.68541	666.22137	288.19604	-317.52808	1019.94055	72.73745	245.07481	245.74074				279.72470	-141.62262	964.82819	124.61294	309.28903	207.01790							91.10927	245.56847	564.80121	113.34379	254.15990	319.92038	
1014	3.377	111.56945	242.68559	382.64911	149.11296	203.41292	235.59366	89.61598	133.41005	367.84857	99.28367	155.78806	303.67599	200.13194	-309.36429	928.00977	145.35149	355.12430	154.48988	-232.91475	209.75897	318.48721	-214.90887	-217.73549	666.21924	288.17715	-317.50739	1019.92993	72.71560	245.07698	245.77266				279.68134	-141.65230	964.83368	124.58902	309.29398	207.06393							91.10749	245.56396	564.82837	113.33691	254.15669	319.93658	
